<svg width="85" height="85" viewBox="0 0 85 85" fill="none" xmlns="http://www.w3.org/2000/svg">
<g opacity="0.1" clip-path="url(#clip0)">
<path d="M33.2093 73.9128C32.4873 73.2717 31.9307 72.4451 31.617 71.5017L27.8647 60.2179C27.2371 58.3314 27.6675 56.236 28.9878 54.7493L36.8837 45.8576C38.2038 44.371 40.2336 43.6959 42.1812 44.096L53.8295 46.4881C55.7773 46.8882 57.3769 48.3086 58.0041 50.1952L61.7564 61.479C62.3837 63.3657 61.9536 65.4611 60.6334 66.9477L59.9484 67.7191C59.3022 68.4468 58.1882 68.5128 57.4606 67.8667C56.7329 67.2205 56.6667 66.1066 57.313 65.3788L57.998 64.6075C58.4846 64.0594 58.6434 63.2868 58.4121 62.5911L54.6597 51.3072C54.4285 50.6116 53.8388 50.088 53.1206 49.9405L41.4723 47.5483C40.7542 47.4008 40.0059 47.6497 39.5191 48.1979L31.6232 57.0895C31.1364 57.6377 30.9777 58.4102 31.2091 59.1058L34.9613 70.3897C35.1929 71.0855 35.7822 71.6089 36.5005 71.7565L48.1488 74.1486C48.8669 74.2961 49.6153 74.0473 50.102 73.4992L51.189 72.2751C51.8352 71.5474 52.9492 71.4814 53.6769 72.1275C54.4045 72.7737 54.4707 73.8876 53.8244 74.6154L52.7374 75.8395C51.4173 77.326 49.3873 78.001 47.4398 77.6011L35.7915 75.2089C34.8178 75.0089 33.931 74.5536 33.2093 73.9128Z" fill="#2D527C"/>
<path d="M38.968 43.2837L35.2155 31.9997C34.7848 30.7045 33.6959 29.7375 32.3588 29.4629L20.7106 27.0708C19.3736 26.7961 17.9915 27.2556 17.0852 28.2762L9.18928 37.1678C8.28292 38.1885 7.99 39.615 8.42062 40.9103L12.1729 52.1942C12.6036 53.4894 13.6927 54.4565 15.0297 54.731L26.6782 57.1234C28.0152 57.3979 29.3971 56.9384 30.3036 55.9177L38.1995 47.026C39.1058 46.0055 39.3989 44.5787 38.968 43.2837ZM25.6893 46.5171C25.4529 46.7833 25.0925 46.9031 24.7438 46.8316L20.8642 46.0349C20.5153 45.9632 20.2314 45.711 20.119 45.3731L18.869 41.6143C18.7565 41.2764 18.8331 40.9045 19.0695 40.6383L21.6994 37.6767C21.9358 37.4105 22.2962 37.2907 22.6449 37.3622L26.5247 38.1591C26.8735 38.2308 27.1575 38.4829 27.2699 38.8208L28.5198 42.5792C28.6322 42.9171 28.5557 43.2891 28.3193 43.5553L25.6892 46.517L25.6893 46.5171Z" fill="#CEE8FA"/>
<path d="M12.0925 55.1639C11.3607 54.514 10.8108 53.6798 10.5019 52.751L6.74958 41.4672C6.12201 39.5804 6.55249 37.485 7.8725 35.9986L15.7684 27.1069C17.0885 25.6204 19.1183 24.9453 21.0661 25.3453L32.7143 27.7375C33.6731 27.9344 34.5665 28.3819 35.2983 29.0318C36.03 29.6815 36.5799 30.5159 36.8889 31.4446L40.6412 42.7284C41.2685 44.6151 40.8381 46.7106 39.5181 48.197L31.6222 57.0887C30.3022 58.5752 28.2724 59.2503 26.3248 58.8505L14.6764 56.4582C13.7177 56.2612 12.8243 55.8137 12.0925 55.1639ZM32.9581 31.6671C32.6882 31.4274 32.3589 31.2625 32.0054 31.1899L20.3571 28.7977C19.639 28.6502 18.8906 28.899 18.4039 29.4471L10.508 38.3388C10.0213 38.8868 9.86256 39.6595 10.0939 40.3551L13.8462 51.639C14.0739 52.3236 14.6782 52.8605 15.3854 53.0058L27.0336 55.3979C27.7517 55.5453 28.5001 55.2965 28.9869 54.7483L36.8828 45.8567C37.3696 45.3085 37.5282 44.536 37.2969 43.8403L33.5445 32.5567C33.4307 32.2143 33.2278 31.9066 32.9581 31.6671ZM19.2337 47.1222C18.872 46.801 18.6002 46.3885 18.4476 45.9297L17.1977 42.1712C16.8879 41.2388 17.1005 40.2035 17.7526 39.4691L20.3825 36.5075C21.0348 35.7731 22.0377 35.4396 22.9998 35.6369L26.8801 36.4339C27.8271 36.6282 28.6379 37.3479 28.9429 38.266L30.1929 42.024C30.5029 42.9563 30.2903 43.9917 29.6378 44.7264L27.0078 47.6881C26.3555 48.4226 25.3526 48.756 24.3905 48.5587L20.5104 47.762C20.0364 47.6644 19.5952 47.4432 19.2337 47.1222ZM20.6817 41.4787L21.6526 44.3983L24.6661 45.0172L26.709 42.7167L25.7382 39.7971L22.7243 39.1783L20.6817 41.4787Z" fill="#2D527C"/>
<path d="M65.7249 34.4178L61.9724 23.1338C61.5417 21.8386 60.4526 20.8714 59.1156 20.597L47.4674 18.2048C46.1303 17.9302 44.7484 18.3897 43.842 19.4104L35.946 28.3021C35.0397 29.3228 34.7467 30.7494 35.1773 32.0446L38.9299 43.3286C39.3605 44.6238 40.4496 45.5909 41.7865 45.8654L53.435 48.2577C54.772 48.5323 56.1539 48.0728 57.0604 47.052L64.9564 38.1603C65.8627 37.1395 66.1557 35.7131 65.7249 34.4178ZM52.4461 37.6513C52.2097 37.9175 51.8493 38.0373 51.5006 37.9657L47.621 37.169C47.2721 37.0973 46.9882 36.8452 46.8758 36.5073L45.6258 32.7485C45.5133 32.4106 45.5899 32.0386 45.8263 31.7724L48.4561 28.811C48.6925 28.5448 49.053 28.4249 49.4016 28.4965L53.2814 29.2934C53.6303 29.3651 53.9142 29.6172 54.0266 29.9551L55.2765 33.7135C55.389 34.0514 55.3124 34.4233 55.076 34.6895L52.446 37.6512L52.4461 37.6513Z" fill="#CEE8FA"/>
<path d="M38.8483 46.2975C38.1164 45.6476 37.5666 44.8133 37.2577 43.8846L33.5053 32.601C32.8779 30.7143 33.3082 28.6189 34.6282 27.1323L42.5243 18.2406C43.8444 16.754 45.8741 16.079 47.8219 16.479L59.4703 18.871C60.429 19.0678 61.3224 19.5153 62.0542 20.1652C62.7861 20.8151 63.3359 21.6494 63.6449 22.5781L67.3973 33.8616C68.0247 35.7483 67.5945 37.8436 66.2743 39.3304L58.3783 48.222C57.0581 49.7087 55.0283 50.3836 53.0805 49.9838L41.4324 47.5914C40.4736 47.3948 39.5801 46.9474 38.8483 46.2975ZM59.714 22.8005C59.4441 22.5608 59.1149 22.3961 58.7617 22.3234L47.1132 19.9311C46.3951 19.7836 45.6465 20.0326 45.1599 20.5806L37.264 29.4722C36.7773 30.0203 36.6185 30.7929 36.8499 31.4886L40.6022 42.7725C40.83 43.4574 41.4345 43.994 42.1411 44.139L53.7895 46.5313C54.5077 46.6788 55.256 46.43 55.7428 45.8818L63.6388 36.9902C64.1256 36.442 64.2842 35.6695 64.0528 34.9739L60.3004 23.69C60.1866 23.3477 59.9839 23.0402 59.714 22.8005ZM45.9896 38.2558C45.6282 37.9348 45.3563 37.5226 45.2036 37.0636L43.9536 33.3048C43.6438 32.3724 43.8564 31.337 44.5085 30.6026L47.1384 27.6411C47.7907 26.9066 48.7936 26.5732 49.7557 26.7705L53.6361 27.5675C54.583 27.7618 55.3938 28.4814 55.6989 29.3996L56.9488 33.1576C57.2586 34.0901 57.046 35.1255 56.3937 35.86L53.7637 38.8217C53.1114 39.5562 52.1083 39.8898 51.146 39.6922L47.2662 38.8953C46.7929 38.7983 46.3513 38.577 45.9896 38.2558ZM47.4375 32.6123L48.4084 35.532L51.4219 36.1509L53.465 33.8502L52.4942 30.9308L49.4805 30.3117L47.4375 32.6123Z" fill="#2D527C"/>
</g>
<defs>
<clipPath id="clip0">
<rect width="60" height="60" fill="white" transform="translate(39.8398) rotate(41.6056)"/>
</clipPath>
</defs>
</svg>
