<svg width="142" height="32" viewBox="0 0 142 32" fill="none" xmlns="http://www.w3.org/2000/svg">
<path d="M27.7545 9.12329H24.6616C24.6616 9.12329 24.6467 10.9024 24.6264 11.2412H27.7545C28.3171 11.2417 28.8565 11.4652 29.2543 11.8626C29.6521 12.26 29.8758 12.7989 29.8763 13.361V18.652C29.8763 19.2142 29.6528 19.7534 29.2548 20.1509C28.8569 20.5484 28.3172 20.7718 27.7545 20.7718H21.8337C20.5995 20.7718 19.684 20.6496 19.0039 20.42C18.0385 20.0923 17.5529 19.5443 17.3083 18.8057C16.8302 18.8279 16.3817 18.8297 15.9981 18.8297C15.7091 18.8297 15.4181 18.8297 15.1383 18.8297C15.4848 20.4719 16.4355 21.977 19.0039 22.5935C19.5852 22.7261 20.1766 22.8103 20.7718 22.8452V27.742C20.7713 28.3037 20.5479 28.8423 20.1505 29.2397C19.7531 29.637 19.2141 29.8607 18.6518 29.8617H13.3482C12.7856 29.8612 12.2461 29.6378 11.8483 29.2403C11.4505 28.8429 11.2268 28.304 11.2263 27.742V21.8178C11.2263 17.0506 13.022 17.0506 15.9981 17.0506C18.9094 17.0506 22.8937 17.0506 22.8937 10.1619V4.23767C22.8922 3.11422 22.4448 2.0372 21.6496 1.24281C20.8545 0.448407 19.7764 0.00146952 18.6518 0H13.3482C12.2233 0.000979638 11.1447 0.447702 10.3492 1.24215C9.55357 2.0366 9.10594 3.1139 9.10447 4.23767V9.09552H4.24369C3.11881 9.0965 2.04027 9.54322 1.24469 10.3377C0.449107 11.1321 0.00147192 12.2094 0 13.3332V18.652C0.00147097 19.7759 0.449041 20.8534 1.24457 21.6482C2.0401 22.4429 3.11864 22.8901 4.24369 22.8915H7.33658V21.8307C7.33658 21.4605 7.3514 21.1124 7.37179 20.7718H4.24369C3.68094 20.7718 3.14124 20.5484 2.74332 20.1509C2.34539 19.7534 2.12184 19.2142 2.12184 18.652V13.361C2.1238 12.7999 2.34816 12.2624 2.74582 11.8662C3.14347 11.47 3.68205 11.2472 4.24369 11.2467H10.1645C11.4024 11.2467 12.316 11.3689 12.9924 11.5985C13.9578 11.9262 14.4452 12.4742 14.6917 13.2128C15.1679 13.1906 15.6183 13.1888 15.9981 13.1888C16.2891 13.1888 16.58 13.1888 16.8617 13.1888C16.5152 11.5467 15.5645 10.0415 12.9924 9.42505C12.4117 9.29228 11.821 9.20806 11.2263 9.17327V4.26543C11.2268 3.70356 11.4506 3.16487 11.8484 2.76773C12.2463 2.3706 12.7857 2.14753 13.3482 2.14753H18.6518C19.2141 2.14851 19.7531 2.37221 20.1505 2.76958C20.5479 3.16696 20.7713 3.70556 20.7718 4.26728V10.1915C20.7718 14.9494 18.9761 14.9494 16 14.9494C13.0924 14.9494 9.10632 14.9494 9.10632 21.8363V27.7605C9.10779 28.8844 9.55537 29.9619 10.3509 30.7566C11.1464 31.5514 12.225 31.9985 13.35 32H18.6537C19.7784 31.998 20.8565 31.5507 21.6516 30.756C22.4467 29.9613 22.8941 28.8841 22.8955 27.7605V22.8989H27.7563C28.8825 22.897 29.9619 22.4487 30.7575 21.6524C31.5531 20.8562 32 19.7771 32 18.652V13.361C31.998 12.237 31.55 11.1597 30.7541 10.3653C29.9582 9.57093 28.8795 9.12426 27.7545 9.12329Z" fill="white"/>
<path d="M45.2406 8.27652H42V23.1369H44.0333V12.6285L45.7701 23.1369H47.9728L49.5825 12.4799V23.1369H51.7853V8.27652H48.5447L46.9562 18.8274L45.2406 8.27652Z" fill="white"/>
<path d="M55.8099 10.3994H59.8341V8.27652H53.4801V23.1369H59.8341V21.014H55.8099V16.662H59.0081V14.5391H55.8099V10.3994Z" fill="white"/>
<path d="M61.2779 23.1369H64.9633C67.2931 23.1369 68.4368 21.8419 68.4368 19.4642V11.9491C68.4368 9.57149 67.2931 8.27652 64.9633 8.27652H61.2779V23.1369ZM64.9209 10.3994C65.6622 10.3994 66.107 10.7815 66.107 11.843V19.5704C66.107 20.6318 65.6622 21.014 64.9209 21.014H63.6077V10.3994H64.9209Z" fill="white"/>
<path d="M69.9237 23.1369H72.2536V8.27652H69.9237V23.1369Z" fill="white"/>
<path d="M78.5109 17.5961V19.719C78.5109 20.7804 78.0449 21.1626 77.3036 21.1626C76.5623 21.1626 76.0963 20.7804 76.0963 19.719V11.6944C76.0963 10.6329 76.5623 10.2296 77.3036 10.2296C78.0449 10.2296 78.5109 10.6329 78.5109 11.6944V13.2866H80.7136V11.843C80.7136 9.46535 79.5275 8.10669 77.2401 8.10669C74.9526 8.10669 73.7665 9.46535 73.7665 11.843V19.5704C73.7665 21.948 74.9526 23.3067 77.2401 23.3067C79.5275 23.3067 80.7136 21.948 80.7136 19.5704V17.5961H78.5109Z" fill="white"/>
<path d="M87.2952 8.27652H83.8852L81.513 23.1369H83.6522L84.0547 20.4408H86.914L87.3164 23.1369H89.6674L87.2952 8.27652ZM85.4737 10.9089L86.5963 18.424H84.3512L85.4737 10.9089Z" fill="white"/>
<path d="M90.7524 23.1369H96.9159V21.014H93.0823V8.27652H90.7524V23.1369Z" fill="white"/>
<path d="M96.9758 16.7681H101.212V14.6452H96.9758V16.7681Z" fill="white"/>
<path d="M107.344 17.5961V19.719C107.344 20.7804 106.878 21.1626 106.137 21.1626C105.396 21.1626 104.93 20.7804 104.93 19.719V11.6944C104.93 10.6329 105.396 10.2296 106.137 10.2296C106.878 10.2296 107.344 10.6329 107.344 11.6944V13.2866H109.547V11.843C109.547 9.46535 108.361 8.10669 106.073 8.10669C103.786 8.10669 102.6 9.46535 102.6 11.843V19.5704C102.6 21.948 103.786 23.3067 106.073 23.3067C108.361 23.3067 109.547 21.948 109.547 19.5704V17.5961H107.344Z" fill="white"/>
<path d="M110.961 23.1369H117.124V21.014H113.29V8.27652H110.961V23.1369Z" fill="white"/>
<path d="M118.138 23.1369H120.468V8.27652H118.138V23.1369Z" fill="white"/>
<path d="M127.149 23.1369H129.542V8.27652H127.466V17.1715L125.073 8.27652H122.15V23.1369H124.247V12.3737L127.149 23.1369Z" fill="white"/>
<path d="M131.21 23.1369H133.54V8.27652H131.21V23.1369Z" fill="white"/>
<path d="M139.797 17.5961V19.719C139.797 20.7804 139.331 21.1626 138.59 21.1626C137.849 21.1626 137.383 20.7804 137.383 19.719V11.6944C137.383 10.6329 137.849 10.2296 138.59 10.2296C139.331 10.2296 139.797 10.6329 139.797 11.6944V13.2866H142V11.843C142 9.46535 140.814 8.10669 138.526 8.10669C136.239 8.10669 135.053 9.46535 135.053 11.843V19.5704C135.053 21.948 136.239 23.3067 138.526 23.3067C140.814 23.3067 142 21.948 142 19.5704V17.5961H139.797Z" fill="white"/>
</svg>
