<svg width="37" height="37" viewBox="0 0 37 37" fill="none" xmlns="http://www.w3.org/2000/svg">
<path d="M22.2027 15.6803C22.2027 15.6803 22.2013 15.6805 22.1987 15.6806C22.2014 15.6802 22.2027 15.6802 22.2027 15.6803ZM24.4645 13.9732L24.4622 13.9821L24.4602 13.9911L22.1987 24.1705C22.1357 24.4532 22.0457 24.4908 22.0421 24.4923L22.0421 24.4923C22.0278 24.4983 21.9297 24.527 21.6902 24.4083L18.2612 21.9942C17.4615 21.4311 17.4058 20.2656 18.1484 19.6289L22.5938 15.8174L22.5938 15.8174L22.5959 15.8156C22.6935 15.731 22.8633 15.5551 22.8688 15.294C22.8761 14.9515 22.6176 14.7766 22.4529 14.7207C22.2937 14.6668 22.1298 14.6749 21.999 14.7005C21.8592 14.7278 21.7152 14.7831 21.5775 14.865L21.5753 14.8663L15.5879 18.4676C14.5021 19.1206 13.1914 19.2857 11.9776 18.9222L10.6801 18.5337L10.6801 18.5336L10.6726 18.5315C10.6717 18.5313 10.6708 18.531 10.6699 18.5307C10.7249 18.5018 10.7925 18.4708 10.8744 18.439L24.1571 13.5489L24.1697 13.5442L24.1821 13.5389C24.3548 13.4645 24.4314 13.5163 24.4445 13.5282C24.4542 13.5371 24.552 13.6382 24.4645 13.9732ZM10.4768 18.667C10.4768 18.667 10.4773 18.6662 10.4785 18.6647C10.4775 18.6663 10.4769 18.667 10.4768 18.667Z" fill="#3D6694" stroke="#3D6694"/>
<path opacity="0.1" fill-rule="evenodd" clip-rule="evenodd" d="M18.5 36C28.165 36 36 28.165 36 18.5C36 8.83502 28.165 1 18.5 1C8.83502 1 1 8.83502 1 18.5C1 28.165 8.83502 36 18.5 36Z" stroke="#3D6694" stroke-width="1.5"/>
</svg>
