<svg width="72" height="72" viewBox="0 0 72 72" fill="none" xmlns="http://www.w3.org/2000/svg">
<g opacity="0.1" clip-path="url(#clip0)">
<path d="M32.2083 23.2901L28.8835 17.5313L31.4164 16.0689C32.7188 15.317 33.1651 13.6516 32.4132 12.3491C31.6612 11.0467 29.9958 10.6005 28.6933 11.3525L18.1684 17.429C16.8661 18.1809 16.4197 19.8463 17.1717 21.1488C17.9237 22.4512 19.589 22.8975 20.8915 22.1455L23.4245 20.6831L26.7493 26.4418" fill="#CEE8FA"/>
<path d="M32.955 24.5856C32.2397 24.9986 31.3248 24.7534 30.9119 24.0381L27.5871 18.2794C27.1741 17.5641 27.4192 16.6493 28.1345 16.2363L30.6675 14.7739C31.2535 14.4355 31.455 13.6833 31.1167 13.0973C30.7784 12.5114 30.0261 12.3098 29.44 12.6482L18.9152 18.7247C18.3292 19.063 18.1277 19.8153 18.466 20.4012C18.8043 20.9872 19.5566 21.1887 20.1425 20.8505L22.6755 19.388C23.3908 18.9751 24.3057 19.2202 24.7186 19.9355L28.0434 25.6942C28.4564 26.4095 28.2113 27.3244 27.496 27.7373C26.7807 28.1503 25.8659 27.9052 25.4529 27.1899L22.8759 22.7264L21.6382 23.441C19.6237 24.6041 17.0384 23.9114 15.8753 21.8969C14.7122 19.8823 15.4051 17.2971 17.4195 16.134L27.9443 10.0576C29.9589 8.89445 32.5441 9.58717 33.7072 11.6017C34.8703 13.6163 34.1776 16.2015 32.163 17.3646L30.9253 18.0792L33.5023 22.5427C33.9155 23.2579 33.6702 24.1727 32.955 24.5856Z" fill="#2D527C"/>
<path d="M40.781 21.334L20.7678 32.8886C20.0525 33.3016 19.1376 33.0565 18.7246 32.3412C18.3117 31.6259 18.5568 30.711 19.2721 30.2981L39.2854 18.7434C40.0007 18.3304 40.9156 18.5755 41.3285 19.2908C41.7414 20.0061 41.4964 20.921 40.781 21.334Z" fill="#2D527C"/>
<path d="M48.8738 58.4603C48.1585 58.8733 47.2437 58.6282 46.8307 57.9129L44.7787 54.3588C44.3657 53.6435 44.6109 52.7286 45.3262 52.3156C46.0415 51.9027 46.9563 52.1478 47.3693 52.8631L49.4213 56.4172C49.8341 57.1326 49.5892 58.0473 48.8738 58.4603Z" fill="#2D527C"/>
<path d="M39.8032 26.8979C39.088 27.3108 38.1731 27.0657 37.7601 26.3504L35.9676 23.2456C35.5546 22.5303 35.7997 21.6155 36.515 21.2025C37.2303 20.7895 38.1452 21.0346 38.5581 21.7499L40.3507 24.8548C40.7638 25.5701 40.5187 26.4848 39.8032 26.8979Z" fill="#2D527C"/>
<path d="M46.9915 54.6832C42.616 57.2094 37.0009 55.705 34.4746 51.3292L22.6874 30.9132C22.2744 30.1979 22.5196 29.2831 23.2349 28.8701C23.9501 28.4571 24.865 28.7022 25.278 29.4175L37.0652 49.8337C38.7668 52.7808 42.5488 53.7942 45.4959 52.0927C48.4431 50.3911 49.4564 46.6092 47.7549 43.662L40.877 31.7491C40.464 31.0338 40.7091 30.1189 41.4244 29.706C42.1397 29.293 43.0546 29.5381 43.4675 30.2534L50.3455 42.1663C52.8716 46.542 51.3671 52.1569 46.9915 54.6832Z" fill="#2D527C"/>
<path d="M34.9109 36.1101L29.4346 39.2718C28.7193 39.6848 27.8045 39.4397 27.3915 38.7244C26.9785 38.0091 27.2237 37.0942 27.939 36.6812L33.4152 33.5195C34.1305 33.1065 35.0454 33.3517 35.4583 34.067C35.8713 34.7823 35.6262 35.6971 34.9109 36.1101Z" fill="#2D527C"/>
<path d="M37.4701 41.3152L32.3824 44.2526C31.6671 44.6656 30.7522 44.4205 30.3393 43.7052C29.9263 42.9899 30.1714 42.0751 30.8867 41.6621L35.9744 38.7247C36.6897 38.3117 37.6045 38.5569 38.0175 39.2722C38.4305 39.9875 38.1856 40.9022 37.4701 41.3152Z" fill="#2D527C"/>
<path d="M40.3639 46.3274L35.2762 49.2649C34.5609 49.6778 33.646 49.4327 33.2331 48.7174C32.8201 48.0021 33.0652 47.0873 33.7805 46.6743L38.8682 43.7369C39.5835 43.324 40.4983 43.5691 40.9113 44.2844C41.3243 44.9997 41.0794 45.9144 40.3639 46.3274Z" fill="#2D527C"/>
</g>
<defs>
<clipPath id="clip0">
<rect width="52.3825" height="52.3825" fill="white" transform="translate(0 26.1914) rotate(-30)"/>
</clipPath>
</defs>
</svg>
