<svg width="76" height="76" viewBox="0 0 76 76" fill="none" xmlns="http://www.w3.org/2000/svg">
<g opacity="0.1" clip-path="url(#clip0)">
<path d="M37.2525 69.2329L10.4714 53.7708C7.54215 52.0796 6.5349 48.3205 8.22614 45.3912L29.6458 8.29131C31.3371 5.36206 35.0961 4.35477 38.0254 6.046L56.9195 16.9545C58.2743 17.7367 59.27 18.9919 59.7234 20.489L63.3414 32.4367C63.8308 34.0532 63.6274 35.819 62.7828 37.2818L52.7101 54.7283C52.2988 55.4407 51.3879 55.6848 50.6755 55.2735C49.9631 54.8621 49.719 53.9513 50.1303 53.2389L60.2031 35.7924C60.6375 35.0399 60.7422 34.1318 60.4904 33.3001L56.8724 21.3524C56.6392 20.5824 56.127 19.9366 55.4301 19.5343L36.536 8.62575C35.0292 7.75581 33.0955 8.27385 32.2255 9.78073L10.8058 46.8808C9.93589 48.3875 10.454 50.3211 11.9609 51.1911L38.7421 66.6533C40.2489 67.5232 42.1826 67.0052 43.0526 65.4983L46.0005 60.3924C46.4118 59.68 47.3227 59.4359 48.0351 59.8472C48.7475 60.2585 48.9916 61.1694 48.5802 61.8818L45.6323 66.9877C43.9409 69.9169 40.1818 70.9242 37.2525 69.2329Z" fill="#2D527C"/>
<path d="M29.4681 51.7921C28.7557 51.3807 28.5116 50.4699 28.9229 49.7575L31.8603 44.6697C32.2717 43.9573 33.1825 43.7133 33.8949 44.1246C34.6073 44.5359 34.8514 45.4467 34.4401 46.1592L31.5027 51.2469C31.0914 51.9592 30.1805 52.2034 29.4681 51.7921Z" fill="#2D527C"/>
<path d="M33.4804 50.7169L28.3926 47.7795C27.6802 47.3682 27.4361 46.4574 27.8475 45.7449C28.2588 45.0325 29.1696 44.7885 29.882 45.1998L34.9698 48.1372C35.6822 48.5485 35.9263 49.4593 35.5149 50.1718C35.1037 50.8841 34.1928 51.1283 33.4804 50.7169Z" fill="#2D527C"/>
<path d="M26.8036 56.4069C22.145 53.7173 20.5431 47.7391 23.2328 43.0805C25.9224 38.4219 31.9006 36.8201 36.5592 39.5097C37.982 40.3312 39.1811 41.5045 40.0267 42.9031C40.4524 43.6069 40.2269 44.5226 39.523 44.9483C38.8191 45.374 37.9035 45.1484 37.4778 44.4446C36.8913 43.475 36.0588 42.6606 35.0698 42.0896C31.8336 40.2212 27.6809 41.3339 25.8125 44.5701C23.9441 47.8062 25.0569 51.9589 28.293 53.8273C31.5292 55.6957 35.6819 54.583 37.5502 51.3468C37.9616 50.6344 38.8724 50.3904 39.5848 50.8017C40.2973 51.213 40.5413 52.1238 40.13 52.8363C37.4403 57.4947 31.4621 59.0965 26.8036 56.4069Z" fill="#2D527C"/>
<path d="M46.5826 37.6436L33.1635 29.8961C31.4854 28.9273 30.9106 26.7817 31.8794 25.1038L34.3288 20.8612C35.2976 19.1832 37.4432 18.6084 39.1211 19.5772L52.5402 27.3247C54.2183 28.2935 54.7931 30.4391 53.8243 32.117L51.3749 36.3595C50.4061 38.0375 48.2606 38.6124 46.5826 37.6436Z" fill="#CEE8FA"/>
<path d="M45.8381 38.9336L32.4189 31.186C30.0324 29.8081 29.2119 26.7457 30.5897 24.3593L33.0391 20.1167C34.417 17.7302 37.4794 16.9097 39.8658 18.2875L53.285 26.0351C55.6715 27.4129 56.492 30.4754 55.1142 32.8618L52.6648 37.1044C51.2869 39.4908 48.2246 40.3114 45.8381 38.9336ZM38.3765 20.8671C37.4125 20.3105 36.1754 20.6421 35.6188 21.606L33.1694 25.8486C32.6128 26.8126 32.9444 28.0497 33.9083 28.6063L47.3275 36.3538C48.2915 36.9104 49.5286 36.5788 50.0851 35.6149L52.5346 31.3723C53.0912 30.4083 52.7596 29.1712 51.7957 28.6147L38.3765 20.8671V20.8671Z" fill="#2D527C"/>
</g>
<defs>
<clipPath id="clip0">
<rect width="55.1079" height="55.1079" fill="white" transform="translate(27.5537) rotate(30)"/>
</clipPath>
</defs>
</svg>
