<svg width="100" height="15" viewBox="0 0 100 15" fill="none" xmlns="http://www.w3.org/2000/svg">
<path d="M3.24059 0.167597H0V14.8324H2.03331V4.46229L3.77009 14.8324H5.97285L7.58255 4.31564V14.8324H9.7853V0.167597H6.54471L4.95619 10.5796L3.24059 0.167597Z" fill="#0D0252"/>
<path d="M13.8099 2.26257H17.8341V0.167597H11.4801V14.8324H17.8341V12.7374H13.8099V8.44274H17.0081V6.34776H13.8099V2.26257Z" fill="#0D0252"/>
<path d="M19.2779 14.8324H22.9633C25.2931 14.8324 26.4368 13.5545 26.4368 11.2081V3.7919C26.4368 1.44553 25.2931 0.167597 22.9633 0.167597H19.2779V14.8324ZM22.9209 2.26257C23.6622 2.26257 24.107 2.63966 24.107 3.68715V11.3128C24.107 12.3603 23.6622 12.7374 22.9209 12.7374H21.6077V2.26257H22.9209Z" fill="#0D0252"/>
<path d="M27.9237 14.8324H30.2536V0.167597H27.9237V14.8324Z" fill="#0D0252"/>
<path d="M36.5109 9.36453V11.4595C36.5109 12.507 36.0449 12.8841 35.3036 12.8841C34.5623 12.8841 34.0963 12.507 34.0963 11.4595V3.5405C34.0963 2.49302 34.5623 2.09497 35.3036 2.09497C36.0449 2.09497 36.5109 2.49302 36.5109 3.5405V5.11173H38.7136V3.68715C38.7136 1.34078 37.5275 0 35.2401 0C32.9526 0 31.7665 1.34078 31.7665 3.68715V11.3128C31.7665 13.6592 32.9526 15 35.2401 15C37.5275 15 38.7136 13.6592 38.7136 11.3128V9.36453H36.5109Z" fill="#0D0252"/>
<path d="M45.2952 0.167597H41.8852L39.513 14.8324H41.6522L42.0547 12.1718H44.914L45.3164 14.8324H47.6674L45.2952 0.167597ZM43.4737 2.76536L44.5963 10.1816H42.3512L43.4737 2.76536Z" fill="#0D0252"/>
<path d="M48.7524 14.8324H54.9159V12.7374H51.0823V0.167597H48.7524V14.8324Z" fill="#0D0252"/>
<path d="M54.9758 8.54749H59.2119V6.45251H54.9758V8.54749Z" fill="#0D0252"/>
<path d="M65.3442 9.36453V11.4595C65.3442 12.507 64.8783 12.8841 64.1369 12.8841C63.3956 12.8841 62.9297 12.507 62.9297 11.4595V3.5405C62.9297 2.49302 63.3956 2.09497 64.1369 2.09497C64.8783 2.09497 65.3442 2.49302 65.3442 3.5405V5.11173H67.547V3.68715C67.547 1.34078 66.3609 0 64.0734 0C61.7859 0 60.5998 1.34078 60.5998 3.68715V11.3128C60.5998 13.6592 61.7859 15 64.0734 15C66.3609 15 67.547 13.6592 67.547 11.3128V9.36453H65.3442Z" fill="#0D0252"/>
<path d="M68.9606 14.8324H75.1241V12.7374H71.2904V0.167597H68.9606V14.8324Z" fill="#0D0252"/>
<path d="M76.1379 14.8324H78.4677V0.167597H76.1379V14.8324Z" fill="#0D0252"/>
<path d="M85.1486 14.8324H87.542V0.167597H85.4663V8.94553L83.073 0.167597H80.1501V14.8324H82.2469V4.21089L85.1486 14.8324Z" fill="#0D0252"/>
<path d="M89.2101 14.8324H91.54V0.167597H89.2101V14.8324Z" fill="#0D0252"/>
<path d="M97.7973 9.36453V11.4595C97.7973 12.507 97.3313 12.8841 96.59 12.8841C95.8487 12.8841 95.3827 12.507 95.3827 11.4595V3.5405C95.3827 2.49302 95.8487 2.09497 96.59 2.09497C97.3313 2.09497 97.7973 2.49302 97.7973 3.5405V5.11173H100V3.68715C100 1.34078 98.8139 0 96.5264 0C94.239 0 93.0529 1.34078 93.0529 3.68715V11.3128C93.0529 13.6592 94.239 15 96.5264 15C98.8139 15 100 13.6592 100 11.3128V9.36453H97.7973Z" fill="#0D0252"/>
</svg>
