<svg width="32" height="32" viewBox="0 0 32 32" fill="none" xmlns="http://www.w3.org/2000/svg">
<path d="M27.7545 9.00324H24.6616C24.6616 9.00324 24.6467 10.7589 24.6264 11.0933H27.7545C28.3171 11.0938 28.8565 11.3143 29.2543 11.7065C29.6521 12.0987 29.8758 12.6305 29.8763 13.1851V18.4066C29.8763 18.9614 29.6528 19.4935 29.2548 19.8858C28.8569 20.2781 28.3172 20.4985 27.7545 20.4985H21.8337C20.5995 20.4985 19.684 20.3779 19.0039 20.1513C18.0385 19.828 17.5529 19.2872 17.3083 18.5582C16.8302 18.5801 16.3817 18.582 15.9981 18.582C15.7091 18.582 15.4181 18.582 15.1383 18.582C15.4848 20.2025 16.4355 21.6878 19.0039 22.2962C19.5852 22.4271 20.1766 22.5102 20.7718 22.5446V27.3769C20.7713 27.9313 20.5479 28.4628 20.1505 28.8549C19.7531 29.2471 19.2141 29.4678 18.6518 29.4688H13.3482C12.7856 29.4683 12.2461 29.2478 11.8483 28.8556C11.4505 28.4634 11.2268 27.9316 11.2263 27.3769V21.5307C11.2263 16.8263 13.022 16.8263 15.9981 16.8263C18.9094 16.8263 22.8937 16.8263 22.8937 10.0282V4.18191C22.8922 3.07324 22.4448 2.0104 21.6496 1.22645C20.8545 0.442507 19.7764 0.00145018 18.6518 0H13.3482C12.2233 0.000966748 11.1447 0.441811 10.3492 1.22581C9.55357 2.00981 9.10594 3.07293 9.10447 4.18191V8.97584H4.24369C3.11881 8.97681 2.04027 9.41765 1.24469 10.2016C0.449107 10.9856 0.00147192 12.0488 0 13.1577V18.4066C0.00147097 19.5157 0.449041 20.579 1.24457 21.3633C2.0401 22.1476 3.11864 22.5889 4.24369 22.5903H7.33658V21.5435C7.33658 21.1781 7.3514 20.8346 7.37179 20.4985H4.24369C3.68094 20.4985 3.14124 20.2781 2.74332 19.8858C2.34539 19.4935 2.12184 18.9614 2.12184 18.4066V13.1851C2.1238 12.6315 2.34816 12.1011 2.74582 11.71C3.14347 11.319 3.68205 11.0992 4.24369 11.0988H10.1645C11.4024 11.0988 12.316 11.2193 12.9924 11.4459C13.9578 11.7693 14.4452 12.31 14.6917 13.039C15.1679 13.0171 15.6183 13.0152 15.9981 13.0152C16.2891 13.0152 16.58 13.0152 16.8617 13.0152C16.5152 11.3947 15.5645 9.90941 12.9924 9.30104C12.4117 9.17001 11.821 9.0869 11.2263 9.05257V4.20931C11.2268 3.65483 11.4506 3.12322 11.8484 2.73132C12.2463 2.33941 12.7857 2.11927 13.3482 2.11927H18.6518C19.2141 2.12024 19.7531 2.341 20.1505 2.73314C20.5479 3.12529 20.7713 3.6568 20.7718 4.21113V10.0574C20.7718 14.7527 18.9761 14.7527 16 14.7527C13.0924 14.7527 9.10632 14.7527 9.10632 21.549V27.3952C9.10779 28.5044 9.55537 29.5677 10.3509 30.352C11.1464 31.1362 12.225 31.5775 13.35 31.5789H18.6537C19.7784 31.577 20.8565 31.1356 21.6516 30.3513C22.4467 29.5671 22.8941 28.5041 22.8955 27.3952V22.5976H27.7563C28.8825 22.5957 29.9619 22.1533 30.7575 21.3675C31.5531 20.5818 32 19.5169 32 18.4066V13.1851C31.998 12.076 31.55 11.0129 30.7541 10.2289C29.9582 9.44499 28.8795 9.00421 27.7545 9.00324Z" fill="#00A099"/>
</svg>
